REM DIRINDEX 1\2,1\3,1\4,1\5\6,1\5\7,1\8
REM DIRNAME cjc115,folder01,folder02,folder03,folder04,folder05,folder06,folder07
TITLE ""
FILE "030 Åy030ÅzUnit2 (0337 assignment_0348 capacity).mp3" MP3
  TRACK 01 AUDIO
    TITLE "0:"
    INDEX 01 00:00:00
  TRACK 02 AUDIO
    TITLE "2:cjc115_1126"
    INDEX 01 00:00:07
  TRACK 03 AUDIO
    TITLE "0:"
    INDEX 01 00:01:40
  TRACK 04 AUDIO
    TITLE "3:cjc115_1127"
    INDEX 01 00:01:52
  TRACK 05 AUDIO
    TITLE "0:"
    INDEX 01 00:02:67
  TRACK 06 AUDIO
    TITLE "4:cjc115_1128"
    INDEX 01 00:03:02
  TRACK 07 AUDIO
    TITLE "0:"
    INDEX 01 00:06:53
  TRACK 08 AUDIO
    TITLE "2:cjc115_1129"
    INDEX 01 00:07:62
  TRACK 09 AUDIO
    TITLE "0:"
    INDEX 01 00:09:28
  TRACK 10 AUDIO
    TITLE "3:cjc115_1130"
    INDEX 01 00:09:36
  TRACK 11 AUDIO
    TITLE "0:"
    INDEX 01 00:10:61
  TRACK 12 AUDIO
    TITLE "4:cjc115_1131"
    INDEX 01 00:10:70
  TRACK 13 AUDIO
    TITLE "0:"
    INDEX 01 00:15:68
  TRACK 14 AUDIO
    TITLE "2:cjc115_1132"
    INDEX 01 00:17:04
  TRACK 15 AUDIO
    TITLE "0:"
    INDEX 01 00:18:31
  TRACK 16 AUDIO
    TITLE "3:cjc115_1133"
    INDEX 01 00:18:41
  TRACK 17 AUDIO
    TITLE "0:"
    INDEX 01 00:19:65
  TRACK 18 AUDIO
    TITLE "4:cjc115_1134"
    INDEX 01 00:19:71
  TRACK 19 AUDIO
    TITLE "0:"
    INDEX 01 00:23:34
  TRACK 20 AUDIO
    TITLE "2:cjc115_1135"
    INDEX 01 00:24:43
  TRACK 21 AUDIO
    TITLE "0:"
    INDEX 01 00:25:64
  TRACK 22 AUDIO
    TITLE "3:cjc115_1136"
    INDEX 01 00:25:74
  TRACK 23 AUDIO
    TITLE "0:"
    INDEX 01 00:28:13
  TRACK 24 AUDIO
    TITLE "4:cjc115_1137"
    INDEX 01 00:28:21
  TRACK 25 AUDIO
    TITLE "0:"
    INDEX 01 00:32:64
  TRACK 26 AUDIO
    TITLE "2:cjc115_1138"
    INDEX 01 00:33:73
  TRACK 27 AUDIO
    TITLE "0:"
    INDEX 01 00:35:47
  TRACK 28 AUDIO
    TITLE "3:cjc115_1139"
    INDEX 01 00:35:57
  TRACK 29 AUDIO
    TITLE "0:"
    INDEX 01 00:37:61
  TRACK 30 AUDIO
    TITLE "4:cjc115_1140"
    INDEX 01 00:37:69
  TRACK 31 AUDIO
    TITLE "0:"
    INDEX 01 00:41:14
  TRACK 32 AUDIO
    TITLE "2:cjc115_1141"
    INDEX 01 00:42:19
  TRACK 33 AUDIO
    TITLE "0:"
    INDEX 01 00:43:39
  TRACK 34 AUDIO
    TITLE "3:cjc115_1142"
    INDEX 01 00:43:48
  TRACK 35 AUDIO
    TITLE "0:"
    INDEX 01 00:45:47
  TRACK 36 AUDIO
    TITLE "4:cjc115_1143"
    INDEX 01 00:45:53
  TRACK 37 AUDIO
    TITLE "0:"
    INDEX 01 00:49:08
  TRACK 38 AUDIO
    TITLE "2:cjc115_1144"
    INDEX 01 00:50:17
  TRACK 39 AUDIO
    TITLE "0:"
    INDEX 01 00:51:52
  TRACK 40 AUDIO
    TITLE "3:cjc115_1145"
    INDEX 01 00:51:62
  TRACK 41 AUDIO
    TITLE "0:"
    INDEX 01 00:54:11
  TRACK 42 AUDIO
    TITLE "4:cjc115_1146"
    INDEX 01 00:54:19
  TRACK 43 AUDIO
    TITLE "0:"
    INDEX 01 00:58:62
  TRACK 44 AUDIO
    TITLE "2:cjc115_1147"
    INDEX 01 00:59:71
  TRACK 45 AUDIO
    TITLE "0:"
    INDEX 01 01:01:19
  TRACK 46 AUDIO
    TITLE "3:cjc115_1148"
    INDEX 01 01:01:33
  TRACK 47 AUDIO
    TITLE "0:"
    INDEX 01 01:03:26
  TRACK 48 AUDIO
    TITLE "4:cjc115_1149"
    INDEX 01 01:03:33
  TRACK 49 AUDIO
    TITLE "0:"
    INDEX 01 01:07:08
  TRACK 50 AUDIO
    TITLE "2:cjc115_1150"
    INDEX 01 01:08:17
  TRACK 51 AUDIO
    TITLE "0:"
    INDEX 01 01:09:44
  TRACK 52 AUDIO
    TITLE "3:cjc115_1151"
    INDEX 01 01:09:52
  TRACK 53 AUDIO
    TITLE "0:"
    INDEX 01 01:11:25
  TRACK 54 AUDIO
    TITLE "4:cjc115_1152"
    INDEX 01 01:11:35
  TRACK 55 AUDIO
    TITLE "0:"
    INDEX 01 01:14:31
  TRACK 56 AUDIO
    TITLE "2:cjc115_1153"
    INDEX 01 01:15:40
  TRACK 57 AUDIO
    TITLE "0:"
    INDEX 01 01:16:50
  TRACK 58 AUDIO
    TITLE "3:cjc115_1154"
    INDEX 01 01:16:56
  TRACK 59 AUDIO
    TITLE "0:"
    INDEX 01 01:17:67
  TRACK 60 AUDIO
    TITLE "4:cjc115_1155"
    INDEX 01 01:18:06
  TRACK 61 AUDIO
    TITLE "0:"
    INDEX 01 01:21:41
  TRACK 62 AUDIO
    TITLE "2:cjc115_1156"
    INDEX 01 01:22:50
  TRACK 63 AUDIO
    TITLE "0:"
    INDEX 01 01:23:67
  TRACK 64 AUDIO
    TITLE "3:cjc115_1157"
    INDEX 01 01:24:00
  TRACK 65 AUDIO
    TITLE "0:"
    INDEX 01 01:26:23
  TRACK 66 AUDIO
    TITLE "4:cjc115_1158"
    INDEX 01 01:26:29
  TRACK 67 AUDIO
    TITLE "0:"
    INDEX 01 01:31:53
  TRACK 68 AUDIO
    TITLE "2:cjc115_1159"
    INDEX 01 01:32:64
  TRACK 69 AUDIO
    TITLE "0:"
    INDEX 01 01:34:14
  TRACK 70 AUDIO
    TITLE "3:cjc115_1160"
    INDEX 01 01:34:24
  TRACK 71 AUDIO
    TITLE "0:"
    INDEX 01 01:37:01
  TRACK 72 AUDIO
    TITLE "4:cjc115_1161"
    INDEX 01 01:37:13
  TRACK 73 AUDIO
    TITLE "0:"
    INDEX 01 01:42:04
